<svg width="512" height="512" viewBox="0 0 512 512" fill="none" xmlns="http://www.w3.org/2000/svg">
<path d="M450.287 0H61.7143C28.2363 0 1 27.2363 1 60.7143V449.287C1 482.764 28.2363 510 61.7143 510H450.287C483.764 510 511 482.764 511 449.287V60.7143C511 27.2363 483.764 0 450.287 0ZM401.788 222.494C399.002 222.763 396.206 222.907 393.408 222.919C378.303 222.921 363.432 219.161 350.141 211.979C336.854 204.796 325.559 194.417 317.286 181.779V321.87C317.286 342.349 311.212 362.369 299.834 379.396C288.457 396.423 272.288 409.695 253.367 417.532C234.448 425.368 213.628 427.419 193.543 423.423C173.458 419.429 155.008 409.567 140.527 395.085C126.047 380.606 116.185 362.156 112.19 342.071C108.195 321.986 110.245 301.167 118.082 282.248C125.919 263.327 139.191 247.155 156.218 235.778C173.245 224.402 193.264 218.329 213.742 218.329C215.905 218.329 218.017 218.523 220.142 218.656V269.681C218.017 269.426 215.928 269.037 213.742 269.037C199.727 269.037 186.286 274.605 176.375 284.515C166.465 294.425 160.897 307.868 160.897 321.882C160.897 335.898 166.465 349.341 176.375 359.251C186.286 369.161 199.727 374.729 213.742 374.729C242.935 374.729 268.713 351.731 268.713 322.538L269.223 84.6115H318.037C320.269 105.821 329.883 125.572 345.201 140.411C360.52 155.25 380.565 164.232 401.837 165.786V222.494" fill="black"/>
</svg>
