<svg height="512" viewBox="0 0 64 64" width="512" xmlns="http://www.w3.org/2000/svg"><g id="delivery_food_pay_hand_money" data-name="delivery, food, pay, hand, money"><circle cx="28" cy="29" fill="#ff9811" r="2"/><path d="m13 7h30v16h-30z" fill="#91dc5a"/><path d="m39.86 50.26a2.013 2.013 0 0 1 -1 1.74l-12.4 7.73a1.923 1.923 0 0 1 -1 .27h-12.85a1.965 1.965 0 0 1 -1.11-.34l-2.5-1.66v-6l3.47-2.6a1.969 1.969 0 0 1 1.2-.4h4.86a1.974 1.974 0 0 1 .89.21l1.58.79h8a2 2 0 0 1 1.73 1 1.965 1.965 0 0 1 .26.93l2.7-1.56.31-.18 2.86-1.65a1.988 1.988 0 0 1 2.73.73 2.088 2.088 0 0 1 .27.99z" fill="#ffbcab"/><path d="m29.2 53.99a1.978 1.978 0 0 0 1.21-.58 1.953 1.953 0 0 0 .59-1.33v-.08c0-.024-.009-.046-.01-.07a2.137 2.137 0 0 0 -.062-.409 1.948 1.948 0 0 1 -.518.889 1.978 1.978 0 0 1 -1.21.58 1.275 1.275 0 0 1 -.2.01h-7v1h7a1.275 1.275 0 0 0 .2-.01z" fill="#ff9478"/><g fill="#4e901e"><path d="m43 18a5 5 0 0 0 -5 5h5z"/><path d="m13 12a5 5 0 0 0 5-5h-5z"/><path d="m43 12a5 5 0 0 1 -5-5h5z"/><path d="m18 23a5 5 0 0 0 -5-5v5z"/></g><path d="m9 58v-6-3h-6v12h6z" fill="#006df0"/><path d="m55 5v7.987 2.013h6v-12h-6z" fill="#006df0"/><path d="m17 41a2 2 0 0 0 2 2h18a2 2 0 0 0 0-4h-18a2 2 0 0 0 -2 2z" fill="#ffa733"/><path d="m28 30a9 9 0 0 0 -9 9h18a9 9 0 0 0 -9-9z" fill="#ffc477"/><path d="m29.326 30.108a9 9 0 0 1 4.674 7.892h-14.941a8.935 8.935 0 0 0 -.059 1h18a8.995 8.995 0 0 0 -7.674-8.892z" fill="#ffb655"/><path d="m22.236 47h11.528a2 2 0 0 0 1.789-1.106l1.447-2.894h-18l1.447 2.894a2 2 0 0 0 1.789 1.106z" fill="#ffc477"/><path d="m36.5 44 .5-1h-18l.5 1z" fill="#ffb655"/><path d="m22 14h-2a1 1 0 0 0 0 2h2a1 1 0 0 0 0-2z" fill="#f1f2f2"/><path d="m36 14h-2a1 1 0 0 0 0 2h2a1 1 0 0 0 0-2z" fill="#f1f2f2"/><path d="m29 21v-1.1c1.741-.327 3-1.477 3-2.9 0-1.682-1.757-3-4-3-1.221 0-2-.592-2-1s.779-1 2-1 2 .592 2 1a1 1 0 0 0 2 0c0-1.421-1.259-2.571-3-2.9v-1.1a1 1 0 0 0 -2 0v1.1c-1.741.327-3 1.477-3 2.9 0 1.682 1.757 3 4 3 1.221 0 2 .592 2 1s-.779 1-2 1-2-.592-2-1a1 1 0 0 0 -2 0c0 1.421 1.259 2.571 3 2.9v1.1a1 1 0 0 0 2 0z" fill="#f1f2f2"/><path d="m28 34a5.021 5.021 0 0 1 4.329 2.5 1 1 0 0 0 .866.5.987.987 0 0 0 .5-.135 1 1 0 0 0 .365-1.365 7.027 7.027 0 0 0 -6.06-3.5 1 1 0 0 0 0 2z" fill="#ffa733"/><path d="m43 10-2.66 2.66a1.983 1.983 0 0 1 -1.41.58 2 2 0 0 1 -1.42-3.41l2.83-2.83h-10.17l4.45-3.56a1.986 1.986 0 0 1 1.25-.44h14.66a1.974 1.974 0 0 1 .89.21l3.58 1.79v7.99l-2 .01-1.57.94a7.978 7.978 0 0 1 -7.13.55l-1.3-.59z" fill="#ffbcab"/><path d="m43 13.9 1 .454v-5.354l-1 1z" fill="#ff9478"/></g></svg>