<svg id="Capa_1" enable-background="new 0 0 512 512" height="512" viewBox="0 0 512 512" width="512" xmlns="http://www.w3.org/2000/svg"><g><path d="m154.239 227.157v-4.86c0-88.715 71.918-160.632 160.633-160.632 10.706 0 21.164 1.057 31.285 3.055v36.262l-109.205 140.106h-48.879z" fill="#fbc700"/><circle cx="314.872" cy="31.086" fill="#ff5595" r="31.086"/><path d="m346.156 64.72c-73.738 14.558-129.348 79.569-129.348 157.578v4.86l20.144 13.931h215.851l22.702-13.931v-4.86c0-78.009-55.611-143.021-129.349-157.578z" fill="#ffd500"/><path d="m203.492 273.516h-62.569c-12.749 0-23.179-10.431-23.179-23.179s10.431-23.179 23.179-23.179h62.569l10.335 8.609v27.643z" fill="#ffd500"/><g><path d="m184.706 43.585h-105.079c-4.267 0-7.726-3.459-7.726-7.726s3.459-7.726 7.726-7.726h105.08c4.267 0 7.726 3.459 7.726 7.726s-3.46 7.726-7.727 7.726z" fill="#60b9fe"/></g><g><path d="m154.239 92.705h-74.612c-4.267 0-7.726-3.459-7.726-7.726s3.459-7.726 7.726-7.726h74.612c4.267 0 7.726 3.459 7.726 7.726s-3.459 7.726-7.726 7.726z" fill="#60b9fe"/></g><g><path d="m137.833 141.823h-58.206c-4.267 0-7.726-3.459-7.726-7.726 0-4.268 3.459-7.726 7.726-7.726h58.206c4.267 0 7.726 3.459 7.726 7.726s-3.459 7.726-7.726 7.726z" fill="#60b9fe"/></g><g><path d="m124.955 190.941h-45.328c-4.267 0-7.726-3.459-7.726-7.726 0-4.268 3.459-7.726 7.726-7.726h45.328c4.267 0 7.726 3.459 7.726 7.726.001 4.267-3.459 7.726-7.726 7.726z" fill="#60b9fe"/></g><g><path d="m131.471 466.983c-3.776.869-7.548 1.896-11.292 3.116l-108.921 41.352c-5.437 2.065-11.258-1.952-11.258-7.767v-104.231c0-3.741 2.5-7.02 6.106-8.012l31.331-8.614c9.207-2.531 17.874-6.689 25.685-12.18 11.941-8.393 24.684-15.67 38.105-21.675 7.6-3.402 13.769-5.832 20.031-7.574l14.03 15.46 15.488 79.993z" fill="#ffb1a0"/></g><path d="m450.216 378.669c-11.751-24.539-38.797-12.939-41.068-12.09l-113.51 33.581c-.563.167-1.093-.335-.953-.905 1.232-4.996 4.115-23.151-16.306-31.301-65.972-26.336-73.839-30.79-90.536-31.055l-.002-.002c-36.32.121-51.712.366-66.583 4.5-15.563 14.725-25.275 35.571-25.275 58.688 0 27.828 14.072 52.369 35.487 66.897 20.312-4.676 40.761-4.199 57.666 2.547l42.574 16.996c9.306 3.208 30.684 8.202 52.868-3.169.011-.005.018-.008.018-.008 2.069-.915 20.89-9.241 44.491-19.68l29.163-12.9c35.935-15.895 72.074-31.881 74.974-33.163 4.502-2.309 27.131-15.885 16.992-38.936z" fill="#ffcebe"/><path d="m295.637 400.161c-.399.118-.777-.102-.916-.441-1.404 3.526-6.183 12.329-18.133 9.401-21.312-5.22-72.089-17.449-72.599-17.572-4.148-1.001-8.322 1.553-9.321 5.703-.999 4.148 1.554 8.322 5.703 9.321.51.123 51.258 12.344 72.54 17.558 3.065.751 5.925 1.09 8.587 1.09 16.808 0 25.72-13.502 28.374-22.005l3.3-8.241z" fill="#ffb1a0"/><g><path d="m488.821 227.157h-285.329c-12.749 0-23.179 10.431-23.179 23.179s10.431 23.179 23.179 23.179h285.328c12.749 0 23.179-10.431 23.179-23.179s-10.43-23.179-23.178-23.179z" fill="#ffeb7e"/></g></g></svg>