<svg id="Capa_1" enable-background="new 0 0 512 512" height="512" viewBox="0 0 512 512" width="512" xmlns="http://www.w3.org/2000/svg"><g><g><path d="m287.629 169.848h-31.002v-60.848c0-3.5-2.848-6.347-6.348-6.347h-98.09c-3.5 0-6.347 2.847-6.347 6.347v60.848h-31.002v-60.848c0-20.594 16.754-37.348 37.348-37.348h98.09c20.594 0 37.349 16.754 37.349 37.348l7.375 29.935z" fill="#6c7fd8"/></g><g><path d="m250.28 71.652h-17.174c20.594 0 37.349 16.754 37.349 37.348v60.848h17.174l7.375-30.913-7.375-29.935c0-20.594-16.755-37.348-37.349-37.348z" fill="#4f66d0"/></g><path d="m378.751 457.436v-.365c0-10.044-.747-20.075-2.236-30.008l-37.297-248.899c-1.512-10.679-10.653-18.617-21.438-18.617h-232.121c-10.757 0-19.883 7.898-21.428 18.544l-38.167 248.619c-1.561 10.168-2.345 20.44-2.345 30.726l177.516 21.68z" fill="#f6a96c"/><path d="m378.754 457.071v.361l-28.865 3.53-7.212-3.53v-.361c0-10.044-.742-20.078-2.236-30.009l-37.292-248.902c-1.514-10.673-10.652-18.615-21.438-18.615h36.067c10.786 0 19.924 7.943 21.438 18.615l37.303 248.902c1.483 9.931 2.235 19.964 2.235 30.009z" fill="#ea9b58"/><g><g><path d="m151.49 403.917c-4.267 0-7.726-3.459-7.726-7.726v-175.399c0-4.267 3.459-7.726 7.726-7.726s7.726 3.459 7.726 7.726v175.398c0 4.268-3.459 7.727-7.726 7.727z" fill="#e2dee2"/></g></g><g><g><path d="m250.98 403.917c-4.267 0-7.726-3.459-7.726-7.726v-104.86c0-4.267 3.459-7.726 7.726-7.726s7.726 3.459 7.726 7.726v104.859c0 4.268-3.459 7.727-7.726 7.727z" fill="#e2dee2"/></g></g><g><path d="m250.98 299.058c-19.619 0-35.523-15.904-35.523-35.523v-14.947c0-19.619 15.904-35.523 35.523-35.523 19.619 0 35.523 15.904 35.523 35.523v14.947c0 19.619-15.905 35.523-35.523 35.523z" fill="#f3f0f3"/></g><path d="m23.719 457.436h355.032v32.912c0 11.958-9.694 21.652-21.652 21.652h-311.728c-11.958 0-21.652-9.694-21.652-21.652z" fill="#ea9b58"/><path d="m342.679 457.436v32.912c0 11.958-9.694 21.652-21.652 21.652h36.072c11.958 0 21.652-9.694 21.652-21.652v-32.912z" fill="#d88a55"/><path d="m468.88 184.862h-161.85c-10.715 0-19.401-8.686-19.401-19.401v-146.06c0-10.715 8.686-19.401 19.401-19.401h161.85c10.715 0 19.401 8.686 19.401 19.401v146.061c0 10.714-8.686 19.4-19.401 19.4z" fill="#fe646f"/><path d="m468.88 0h-25.774c10.715 0 19.401 8.686 19.401 19.401v146.061c0 10.715-8.686 19.401-19.401 19.401h25.774c10.715 0 19.401-8.686 19.401-19.401v-146.061c0-10.715-8.686-19.401-19.401-19.401z" fill="#fd4755"/><path d="m419.385 94.787c-1.308-1.298-1.308-3.41 0-4.718l19.46-19.46c4.203-4.203 4.203-11.002 0-15.206l-13.866-13.866c-4.193-4.193-11.002-4.193-15.195 0l-5.934 5.934-13.536 13.536c-1.303 1.303-3.415 1.303-4.717 0l-19.468-19.468c-4.198-4.198-11.004-4.198-15.201 0l-13.865 13.865c-4.198 4.198-4.198 11.004 0 15.201l19.468 19.468c1.303 1.303 1.303 3.415 0 4.717l-19.468 19.468c-4.198 4.198-4.198 11.004 0 15.201l13.865 13.865c4.198 4.198 11.004 4.198 15.201 0l19.468-19.468c1.303-1.303 3.415-1.303 4.717 0l13.536 13.529 5.934 5.934c4.193 4.203 11.002 4.203 15.195 0l13.866-13.856c4.203-4.203 4.203-11.013 0-15.206z" fill="#f3f0f3"/><g><g><path d="m151.49 299.058c-20.327 0-36.865-16.538-36.865-36.866v-41.4c0-4.267 3.459-7.726 7.726-7.726s7.726 3.459 7.726 7.726v41.4c0 11.807 9.606 21.413 21.412 21.413 11.807 0 21.413-9.606 21.413-21.413v-41.4c0-4.267 3.459-7.726 7.726-7.726s7.726 3.459 7.726 7.726v41.4c.002 20.328-16.536 36.866-36.864 36.866z" fill="#f3f0f3"/></g></g></g></svg>